<svg xmlns="http://www.w3.org/2000/svg" xml:space="preserve" width="512" height="512" viewBox="0 0 469.999 469.999"><path d="M234.358 171.04c-120.121.355-217.212 98.02-216.857 218.141l434.998-1.284c-.355-120.122-98.02-217.212-218.141-216.857z" style="fill:#fdce6e"/><path d="m339.404 186.373.027 9.142 33.246 252.618 30-.089c33.137-.098 59.92-27.04 59.823-60.177-.26-87.767-50.193-163.767-123.096-201.494z" style="fill:#fd7555"/><path d="M432.499 387.956c-.24-81.198-37.382-152.349-93.069-192.441l.296 100.215c.024 8.284-6.671 15.02-14.956 15.044-8.284.024-15.02-6.672-15.044-14.956l-.361-122.33c-18.999-6.57-39.136-10.689-60.036-11.988l.397 134.495c.024 8.284-6.671 15.02-14.956 15.044-8.284.024-15.02-6.672-15.044-14.956l-.397-134.495c-20.892 1.422-41.003 5.66-59.964 12.342l.361 122.33c.024 8.284-6.671 15.02-14.956 15.044-8.284.024-15.02-6.672-15.044-14.956l-.323-109.356C56.724 225.149 7.242 301.443 7.501 389.21c.098 33.137 27.04 59.92 60.177 59.823l304.999-.9c33.136-.098 59.92-27.04 59.822-60.177z" style="fill:#fda162"/><path d="M342.851 179.712a7.498 7.498 0 0 0-10.889 5.753 224.095 224.095 0 0 0-15.08-6.548l-.016-5.451a7.5 7.5 0 0 0-5.049-7.065 234.241 234.241 0 0 0-62.021-12.386 7.5 7.5 0 0 0-7.964 7.507l.006 2.126a218.434 218.434 0 0 0-7.5-.109c-2.457.007-4.963.06-7.5.154l-.006-2.127a7.5 7.5 0 0 0-8.009-7.46 234.145 234.145 0 0 0-61.948 12.751 7.498 7.498 0 0 0-5.007 7.095l.016 5.451a224.266 224.266 0 0 0-15.041 6.637 7.496 7.496 0 0 0-10.923-5.688C47.989 221.264-.259 301.302.001 389.233c.053 18.029 7.124 34.959 19.911 47.671 12.738 12.663 29.63 19.629 47.583 19.629h.205l334.998-.989c18.029-.053 34.96-7.124 47.671-19.911 12.712-12.786 19.683-29.758 19.63-47.788-.261-87.931-48.98-167.683-127.148-208.133zm96.881 245.345c-9.887 9.945-23.055 15.445-37.078 15.486l-334.998.989h-.159c-13.963 0-27.102-5.418-37.009-15.268-9.945-9.886-15.445-23.054-15.486-37.077-.232-78.117 40.438-149.584 106.94-189.408l.285 96.593c.036 12.384 10.122 22.434 22.499 22.433h.067a22.353 22.353 0 0 0 15.89-6.637 22.347 22.347 0 0 0 6.543-15.931 7.5 7.5 0 0 0-15 .046c.006 2.002-.769 3.888-2.181 5.309s-3.293 2.206-5.297 2.212c-4.147 0-7.51-3.35-7.521-7.478l-.276-93.525c4.9-2.593 9.906-4.989 14.979-7.18l.031 10.66a7.5 7.5 0 0 0 7.499 7.479c4.165-.012 7.513-3.38 7.501-7.522l-.079-26.936a219.227 219.227 0 0 1 44.973-9.542l.372 126.346c.036 12.384 10.123 22.434 22.5 22.433h.067a22.353 22.353 0 0 0 15.89-6.637 22.355 22.355 0 0 0 6.543-15.93 7.5 7.5 0 1 0-15 .044 7.454 7.454 0 0 1-2.181 5.31 7.453 7.453 0 0 1-5.297 2.212c-4.147 0-7.511-3.35-7.522-7.478l-.346-117.357a205.99 205.99 0 0 1 7.498-.165c2.449-.02 4.959.023 7.502.112l.257 87.366a7.5 7.5 0 0 0 7.5 7.478c4.164-.013 7.512-3.38 7.5-7.522l-.283-96.345a219.135 219.135 0 0 1 45.026 9.276l.346 116.936a22.353 22.353 0 0 0 6.637 15.89 22.35 22.35 0 0 0 15.861 6.544h.068a22.353 22.353 0 0 0 15.89-6.637 22.354 22.354 0 0 0 6.544-15.93 7.5 7.5 0 1 0-15 .044 7.454 7.454 0 0 1-2.181 5.31 7.457 7.457 0 0 1-5.298 2.212 7.467 7.467 0 0 1-5.31-2.181 7.457 7.457 0 0 1-2.212-5.298l-.297-100.659a209.9 209.9 0 0 1 15.021 7.091l.188 63.525a7.5 7.5 0 1 0 15-.044l-.196-66.593C413.678 238.544 454.768 309.769 455 387.888c.04 14.024-5.382 27.224-15.268 37.169z"/><circle cx="44.979" cy="381.599" r="7.5"/><circle cx="75.067" cy="411.511" r="7.5"/><circle cx="404.977" cy="380.537" r="7.5"/><path d="M244.158 103.511c.047 15.664 4.542 23.847 8.508 31.065a7.498 7.498 0 0 0 10.184 2.962 7.5 7.5 0 0 0 2.962-10.185c-3.552-6.465-6.619-12.049-6.654-23.888-.035-11.837 3-17.44 6.514-23.928 3.924-7.243 8.37-15.453 8.324-31.116-.047-15.663-4.543-23.846-8.51-31.066a7.5 7.5 0 0 0-10.185-2.961 7.5 7.5 0 0 0-2.962 10.185c3.553 6.466 6.621 12.051 6.656 23.888s-3 17.44-6.514 23.928c-3.922 7.243-8.369 15.453-8.323 31.116zm-50 .148c.047 15.663 4.542 23.846 8.508 31.065a7.497 7.497 0 0 0 10.184 2.963 7.5 7.5 0 0 0 2.963-10.184c-3.552-6.467-6.619-12.051-6.654-23.89-.035-11.837 3-17.44 6.514-23.928 3.924-7.243 8.37-15.453 8.324-31.116-.047-15.663-4.543-23.846-8.51-31.066a7.498 7.498 0 0 0-10.185-2.961 7.5 7.5 0 0 0-2.962 10.185c3.553 6.466 6.621 12.051 6.656 23.888s-3 17.44-6.514 23.928c-3.923 7.243-8.37 15.453-8.324 31.116z" style="fill:#ffcfb2"/></svg>