<svg width="500mm" height="500mm" viewBox="0 0 500 500" xmlns="http://www.w3.org/2000/svg"><defs><linearGradient id="b" x1="40.222" x2="-29.231" y1="96.46" y2="96.46" gradientTransform="translate(337.76 -224.65) scale(4.735)" gradientUnits="userSpaceOnUse"><stop stop-color="#71aff4" offset="0"/><stop stop-color="#046cf6" offset=".786"/></linearGradient><linearGradient id="a" x1="40.211" x2="-39.153" y1="110.51" y2="109.57" gradientTransform="translate(337.76 -224.65) scale(4.735)" gradientUnits="userSpaceOnUse"><stop stop-color="#0974f1" offset=".377"/><stop stop-color="#71aef4" offset="1"/></linearGradient></defs><path d="M340.29 106.25a187.92 187.92 0 0 0-187.92 187.92 187.92 187.92 0 0 0 187.92 187.92 187.92 187.92 0 0 0 187.92-187.92 187.92 187.92 0 0 0-187.92-187.92zm0 93.96a93.96 93.96 0 0 1 93.96 93.96 93.96 93.96 0 0 1-93.96 93.96 93.96 93.96 0 0 1-93.96-93.96 93.96 93.96 0 0 1 93.96-93.96z" fill="url(#a)" transform="translate(-90.288 17.909)"/><path d="M528.21-17.909c-52.053 0-93.96 26.054-93.96 58.414v253.67a93.96 93.96 0 0 1-93.96 93.96 93.96 93.96 0 0 1-93.96-93.96 93.96 93.96 0 0 1 93.96-93.96 140.94 140.94 0 0 0-140.94 140.94 140.94 140.94 0 0 0 137.57 140.78l-.024.028a187.92 187.92 0 0 0 3.39.128 140.94 140.94 0 0 0 7.695-.225 187.92 187.92 0 0 0 180.22-187.7z" fill="url(#b)" transform="translate(-90.288 17.909)"/></svg>